<svg width="500" height="500" viewBox="0 0 500 500" fill="none" xmlns="http://www.w3.org/2000/svg">
<rect width="500" height="500" rx="88" fill="#FFC000"/>
<g filter="url(#filter0_d_105_194)">
<circle cx="250.5" cy="250.5" r="147.5" fill="white"/>
</g>
<g filter="url(#filter1_d_105_194)">
<path d="M249.777 174.628H249.784L250.245 174.63L250.704 174.634L251.163 174.64L251.621 174.652L252.078 174.665L252.132 174.666C252.78 174.689 253.004 173.766 252.338 173.517C252.282 173.499 252.229 173.49 252.17 173.488L252.117 173.486L251.651 173.472L251.184 173.463L250.72 173.455L250.251 173.45L249.784 173.449L249.316 173.45L248.851 173.455H248.755C248.123 173.48 247.95 174.311 248.518 174.581C248.6 174.621 248.687 174.635 248.777 174.635L248.865 174.634L249.324 174.63L249.777 174.628ZM316.395 270.391C316.173 270.967 316.913 271.467 317.377 271.004C317.436 270.941 317.474 270.878 317.504 270.8L317.647 270.418L317.799 270.008L317.947 269.595L318.093 269.184L318.236 268.768L318.307 268.561C318.509 267.978 317.758 267.503 317.31 267.976C317.252 268.042 317.213 268.105 317.185 268.187L317.117 268.388L316.975 268.794L316.832 269.2L316.687 269.606L316.537 270.01L316.395 270.391ZM245.256 174.77C245.877 174.724 246.024 173.886 245.443 173.635C245.355 173.603 245.276 173.586 245.179 173.594L245.142 173.595L244.681 173.626L244.222 173.658L243.763 173.695L243.306 173.735L242.85 173.776L242.798 173.782C242.327 173.832 242.106 174.372 242.402 174.742C242.53 174.893 242.718 174.977 242.918 174.955L242.96 174.951L243.41 174.907L243.861 174.869L244.311 174.834L244.763 174.802L245.216 174.771L245.256 174.77ZM239.42 175.374C240.032 175.284 240.115 174.429 239.515 174.23C239.422 174.204 239.345 174.193 239.248 174.208L239.221 174.211L238.774 174.279L238.325 174.347L237.877 174.421L237.431 174.495L236.983 174.574L236.891 174.59C236.234 174.711 236.249 175.677 236.943 175.758C237 175.763 237.052 175.76 237.106 175.75L237.193 175.733L237.631 175.658L238.07 175.583L238.51 175.513L238.952 175.443L239.395 175.378L239.42 175.374ZM233.659 176.457C234.113 176.356 234.273 175.76 233.925 175.452C233.788 175.313 233.572 175.268 233.386 175.31L233.018 175.395L232.581 175.5L232.147 175.606L231.713 175.717L231.281 175.83L231.072 175.886C230.455 176.05 230.499 176.961 231.171 177.041C231.244 177.048 231.31 177.042 231.381 177.023L231.583 176.97L232.008 176.86L232.434 176.751L232.863 176.645L233.29 176.542L233.659 176.457ZM228.002 178.012C228.637 177.795 228.492 176.888 227.839 176.862C227.763 176.862 227.71 176.869 227.637 176.892L227.434 176.955L227.013 177.093L226.592 177.234L226.173 177.378L225.754 177.523L225.379 177.655C224.794 177.858 224.884 178.748 225.547 178.798C225.632 178.802 225.701 178.792 225.78 178.765L226.148 178.634L226.971 178.35L227.385 178.213L227.8 178.077L228.002 178.012ZM222.499 180.029C222.982 179.817 222.982 179.152 222.494 178.942C222.344 178.884 222.189 178.876 222.037 178.943L221.638 179.11L220.829 179.456L220.427 179.634L220.025 179.814L219.852 179.891C219.221 180.194 219.525 181.138 220.225 181.004C220.269 180.993 220.304 180.98 220.345 180.962L220.512 180.886L220.907 180.711L221.304 180.536L221.701 180.366L222.099 180.196L222.499 180.029ZM217.18 182.496C217.791 182.164 217.449 181.243 216.758 181.401C216.716 181.414 216.673 181.428 216.634 181.45L216.476 181.53L216.087 181.733L215.7 181.937L215.317 182.145L214.933 182.354L214.551 182.564L214.529 182.576C214.281 182.721 214.173 183.003 214.26 183.274C214.39 183.632 214.778 183.783 215.113 183.601L215.127 183.594L215.505 183.385L215.881 183.179L216.259 182.976L216.639 182.775L217.021 182.576L217.18 182.496ZM212.085 185.39C212.676 185.004 212.232 184.1 211.554 184.341C211.518 184.355 211.483 184.372 211.451 184.394L211.177 184.565L210.809 184.798L210.443 185.034L210.077 185.271L209.716 185.512L209.452 185.688C208.958 186.009 209.204 186.812 209.848 186.762C209.949 186.75 210.028 186.719 210.113 186.664L210.372 186.492L210.729 186.255L211.087 186.023L211.447 185.79L211.809 185.561L212.085 185.39ZM207.243 188.695C207.727 188.343 207.42 187.543 206.785 187.642C206.687 187.661 206.615 187.692 206.534 187.749L206.52 187.761L206.172 188.021L205.826 188.283L205.482 188.547L205.141 188.814L204.799 189.082L204.645 189.205C204.143 189.612 204.561 190.429 205.213 190.22C205.278 190.197 205.332 190.167 205.388 190.124L205.537 190.004L205.872 189.741L206.208 189.479L206.547 189.219L206.887 188.96L207.243 188.695ZM202.693 192.383C203.158 191.966 202.748 191.204 202.128 191.377C202.039 191.408 201.978 191.44 201.907 191.5L201.81 191.587L201.485 191.873L201.163 192.163L200.843 192.455L200.525 192.748L200.208 193.043L200.145 193.106C199.67 193.553 200.179 194.351 200.816 194.061C200.871 194.031 200.916 194 200.961 193.958L201.019 193.903L201.331 193.612L201.646 193.323L201.96 193.037L202.277 192.751L202.595 192.467L202.693 192.383ZM198.46 196.43C198.919 195.949 198.351 195.166 197.72 195.522C197.678 195.549 197.639 195.579 197.606 195.615L197.441 195.786L196.846 196.415L196.551 196.733L196.259 197.051L195.982 197.356C195.548 197.836 196.105 198.579 196.707 198.267C196.766 198.234 196.815 198.195 196.863 198.144L197.134 197.844L197.423 197.529L197.712 197.218L198.003 196.908L198.298 196.598L198.46 196.43ZM194.576 200.807C194.757 200.584 194.748 200.259 194.558 200.045C194.312 199.773 193.884 199.784 193.654 200.067L193.437 200.335L193.166 200.672L192.897 201.013L192.629 201.353L192.364 201.697L192.179 201.934C191.77 202.496 192.47 203.17 193.016 202.755C193.059 202.722 193.091 202.687 193.125 202.646L193.302 202.414L193.565 202.076L193.826 201.739L194.092 201.406L194.359 201.075L194.576 200.807ZM191.063 205.492C191.437 204.921 190.741 204.29 190.209 204.694C190.161 204.732 190.122 204.772 190.086 204.825L190.068 204.852L189.822 205.211L189.58 205.57L189.34 205.932L189.102 206.295L188.865 206.66L188.769 206.809C188.438 207.314 189.027 207.953 189.577 207.629C189.661 207.576 189.715 207.521 189.769 207.44L189.862 207.297L190.094 206.939L190.328 206.581L190.565 206.224L191.045 205.517L191.063 205.492ZM187.95 210.443C188.274 209.849 187.532 209.275 187.033 209.72C186.987 209.763 186.953 209.807 186.921 209.861L186.837 210.008L186.622 210.387L186.411 210.768L186.2 211.15L185.992 211.535L185.788 211.918L185.772 211.948C185.709 212.066 185.695 212.195 185.716 212.326C185.828 212.879 186.553 212.988 186.822 212.493L186.835 212.47L187.037 212.09L187.24 211.713L187.446 211.337L187.656 210.963L187.866 210.589L187.95 210.443ZM185.257 215.633C185.551 214.974 184.641 214.46 184.223 215.07C184.208 215.093 184.195 215.115 184.182 215.143L184.043 215.444L183.86 215.842L183.68 216.241L183.504 216.642L183.213 217.313C183.16 217.433 183.153 217.576 183.189 217.7C183.346 218.239 184.077 218.285 184.303 217.773L184.415 217.51L184.588 217.115L184.763 216.721L184.939 216.329L185.118 215.936L185.257 215.633ZM183.005 221.033C183.229 220.39 182.388 219.938 181.973 220.484C181.942 220.526 181.912 220.579 181.895 220.627L181.862 220.72L181.71 221.134L181.561 221.55L181.415 221.967L181.272 222.383L181.132 222.804L181.109 222.875C180.906 223.526 181.776 223.947 182.167 223.379C182.197 223.331 182.216 223.292 182.234 223.239L182.255 223.174L182.534 222.351L182.678 221.941L182.824 221.533L182.973 221.125L183.005 221.033ZM181.212 226.595C181.378 225.987 180.588 225.566 180.17 226.086C180.122 226.15 180.091 226.21 180.071 226.287L179.978 226.624L179.862 227.055L179.749 227.485L179.531 228.352L179.475 228.587C179.325 229.258 180.233 229.6 180.568 229.008C180.594 228.96 180.613 228.914 180.626 228.859L180.682 228.631L180.788 228.205L180.895 227.779L181.007 227.357L181.119 226.932L181.212 226.595ZM179.889 232.29C179.938 232.018 179.793 231.744 179.536 231.638C179.187 231.493 178.795 231.703 178.725 232.075L178.683 232.296L178.603 232.738L178.524 233.182L178.448 233.627L178.376 234.072L178.323 234.416C178.224 235.069 179.119 235.373 179.439 234.768C179.463 234.711 179.484 234.655 179.493 234.593L179.545 234.258L179.616 233.82L179.691 233.381L179.767 232.945L179.848 232.51L179.889 232.29ZM179.042 238.072C179.109 237.463 178.276 237.152 177.933 237.729C177.893 237.805 177.874 237.868 177.865 237.954L177.846 238.125L177.801 238.579L177.759 239.034L177.721 239.491L177.685 239.947L177.656 240.321C177.61 240.952 178.491 241.22 178.791 240.594C178.818 240.531 178.832 240.471 178.836 240.403L178.863 240.036L178.899 239.587L178.938 239.139L178.98 238.692L179.024 238.244L179.042 238.072ZM178.674 243.906C178.674 243.21 177.699 243.072 177.508 243.75C177.497 243.797 177.493 243.833 177.492 243.882L177.487 244.095L177.479 244.558L177.475 245.023L177.474 245.49L177.475 245.956L177.477 246.259C177.477 246.878 178.36 247.089 178.623 246.461C178.651 246.387 178.661 246.324 178.661 246.243L178.658 245.948L178.656 245.49L178.658 245.031L178.661 244.573L178.669 244.117L178.674 243.906ZM178.783 249.749C178.738 249.131 177.897 248.982 177.645 249.562C177.611 249.649 177.595 249.729 177.602 249.824L177.619 250.115L177.65 250.574L177.685 251.032L177.721 251.489L177.759 251.945L177.783 252.192C177.815 252.482 178.038 252.704 178.33 252.725C178.689 252.752 178.999 252.441 178.96 252.081L178.938 251.84L178.899 251.393L178.863 250.942L178.831 250.492L178.801 250.04L178.783 249.749ZM179.37 255.563C179.28 254.955 178.421 254.873 178.22 255.471C178.196 255.562 178.184 255.637 178.2 255.736L178.24 256.013L178.307 256.461L178.376 256.906L178.448 257.352L178.524 257.798L178.575 258.081C178.617 258.316 178.792 258.499 179.026 258.552C179.435 258.649 179.815 258.284 179.739 257.874L179.691 257.597L179.616 257.16L179.545 256.721L179.476 256.283L179.409 255.843L179.37 255.563ZM180.436 261.312C180.3 260.706 179.405 260.697 179.278 261.339C179.263 261.425 179.263 261.492 179.284 261.577L179.325 261.757L179.427 262.194L179.531 262.629L179.749 263.494L179.851 263.884C179.889 264.022 179.959 264.118 180.069 264.206C180.516 264.54 181.141 264.118 180.995 263.583L180.895 263.199L180.788 262.775L180.682 262.349L180.579 261.922L180.476 261.493L180.436 261.312ZM181.976 266.953C181.794 266.36 180.899 266.419 180.824 267.076C180.818 267.159 180.824 267.23 180.85 267.309L180.857 267.335L180.994 267.756L181.132 268.175L181.272 268.596L181.415 269.013L181.561 269.43L181.611 269.565C181.812 270.148 182.705 270.057 182.757 269.398C182.761 269.314 182.75 269.245 182.723 269.166L182.678 269.039L182.534 268.629L182.255 267.806L182.118 267.392L181.985 266.978L181.976 266.953ZM183.983 272.442C183.708 271.818 182.794 272.058 182.846 272.72C182.853 272.784 182.864 272.832 182.889 272.893L182.986 273.127L183.157 273.531L183.33 273.936L183.504 274.338L183.68 274.738L183.833 275.075C183.931 275.297 184.171 275.44 184.411 275.422C184.827 275.39 185.08 274.969 184.912 274.591L184.763 274.258L184.588 273.864L184.415 273.469L184.246 273.072L184.079 272.674L183.983 272.442ZM186.437 277.748C186.103 277.137 185.18 277.479 185.338 278.166C185.35 278.209 185.365 278.253 185.387 278.291L185.586 278.675L185.788 279.061L185.992 279.446L186.2 279.829L186.411 280.21L186.509 280.387C186.801 280.925 187.665 280.706 187.614 280.035C187.605 279.953 187.583 279.886 187.543 279.812L187.446 279.643L187.24 279.266L187.037 278.889L186.835 278.511L186.635 278.131L186.437 277.748ZM189.326 282.836C188.948 282.26 188.072 282.661 188.256 283.317C188.274 283.371 188.292 283.412 188.322 283.46L188.399 283.586L188.631 283.952L188.865 284.319L189.102 284.685L189.34 285.048L189.58 285.408L189.615 285.461C189.936 285.952 190.743 285.707 190.694 285.066C190.681 284.966 190.652 284.886 190.596 284.802L190.565 284.754L190.328 284.399L190.094 284.042L189.862 283.683L189.631 283.323L189.403 282.962L189.326 282.836ZM192.624 287.669C192.271 287.186 191.469 287.493 191.567 288.125C191.587 288.223 191.618 288.293 191.676 288.375L191.84 288.592L192.1 288.939L192.364 289.284L192.629 289.626L192.897 289.966L193.127 290.259C193.266 290.429 193.472 290.506 193.689 290.474C194.13 290.404 194.336 289.872 194.054 289.525L193.826 289.237L193.565 288.903L193.302 288.565L193.043 288.228L192.787 287.888L192.624 287.669ZM196.31 292.216C195.866 291.725 195.061 292.216 195.325 292.846C195.352 292.905 195.382 292.949 195.424 292.997L195.678 293.285L195.968 293.608L196.259 293.929L196.551 294.248L196.846 294.565L197.026 294.757C197.196 294.934 197.456 294.991 197.683 294.896C198.065 294.738 198.172 294.248 197.887 293.948L197.712 293.762L197.423 293.45L197.134 293.136L196.848 292.822L196.564 292.502L196.31 292.216ZM200.36 296.448C199.882 295.997 199.13 296.533 199.418 297.137C199.449 297.196 199.488 297.249 199.537 297.296L199.581 297.34L199.894 297.638L200.208 297.936L200.525 298.231L200.843 298.525L201.163 298.816L201.28 298.921C201.763 299.354 202.51 298.797 202.195 298.2C202.162 298.14 202.124 298.09 202.071 298.044L201.96 297.943L201.646 297.656L201.331 297.368L201.019 297.077L200.71 296.785L200.403 296.492L200.36 296.448ZM204.74 300.334C204.22 299.915 203.508 300.545 203.868 301.11C203.903 301.162 203.943 301.207 203.992 301.247L204.123 301.353L204.459 301.625L205.141 302.165L205.482 302.431L205.826 302.695L205.864 302.725C206.427 303.131 207.103 302.434 206.687 301.891C206.654 301.849 206.621 301.817 206.578 301.783L206.547 301.76L206.208 301.501L205.872 301.238L205.202 300.708L204.872 300.44L204.74 300.334ZM209.426 303.847C208.853 303.476 208.222 304.169 208.626 304.698C208.664 304.746 208.706 304.785 208.756 304.821L208.996 304.982L209.354 305.228L209.716 305.469L210.077 305.707L210.443 305.945L210.742 306.137C211.25 306.468 211.897 305.892 211.558 305.324C211.509 305.249 211.456 305.194 211.38 305.145L211.087 304.957L210.729 304.723L210.372 304.487L210.018 304.25L209.663 304.011L209.426 303.847ZM214.386 306.967C213.788 306.645 213.21 307.384 213.66 307.88C213.703 307.928 213.747 307.96 213.801 307.993L214.171 308.201L214.551 308.415L214.933 308.626L215.317 308.836L215.7 309.043L215.888 309.141C216.438 309.438 217.036 308.762 216.617 308.241C216.567 308.182 216.51 308.138 216.441 308.1L216.259 308.003L215.881 307.799L215.505 307.594L215.127 307.385L214.753 307.176L214.386 306.967ZM219.59 309.667C219.031 309.402 218.47 310.093 218.895 310.592C218.952 310.655 219.012 310.701 219.088 310.737L219.226 310.803L219.626 310.985L220.025 311.167L220.427 311.346L220.829 311.523L221.233 311.698L221.268 311.712C221.388 311.765 221.532 311.772 221.657 311.738C222.195 311.58 222.243 310.851 221.728 310.627L221.701 310.614L221.304 310.443L220.907 310.269L220.512 310.093L220.119 309.914L219.728 309.733L219.59 309.667ZM224.997 311.929C224.352 311.708 223.899 312.543 224.446 312.96C224.487 312.991 224.539 313.019 224.59 313.037L224.921 313.158L225.337 313.309L225.754 313.458L226.173 313.603L226.592 313.745L226.84 313.827C226.961 313.868 227.106 313.867 227.226 313.824C227.754 313.626 227.745 312.892 227.212 312.709L226.971 312.629L226.56 312.488L226.148 312.344L225.737 312.199L225.328 312.053L224.997 311.929ZM230.576 313.738C230.323 313.67 230.059 313.771 229.916 313.992C229.707 314.321 229.882 314.773 230.261 314.874L230.418 314.918L230.849 315.036L231.281 315.15L231.713 315.263L232.147 315.373L232.567 315.476C232.716 315.509 232.85 315.495 232.987 315.423C233.464 315.164 233.377 314.466 232.849 314.331L232.434 314.229L232.008 314.121L231.158 313.898L230.735 313.781L230.576 313.738ZM236.287 315.078C235.615 314.955 235.299 315.879 235.916 316.186C235.964 316.208 236.013 316.226 236.065 316.235L236.096 316.242L236.54 316.325L236.983 316.406L237.431 316.484L237.877 316.558L238.325 316.63L238.418 316.646C239.072 316.742 239.378 315.849 238.768 315.535C238.714 315.507 238.657 315.489 238.595 315.48L238.51 315.467L238.07 315.395L237.631 315.322L237.193 315.245L236.757 315.167L236.32 315.084L236.287 315.078ZM242.085 315.943C241.473 315.873 241.164 316.705 241.741 317.046C241.817 317.084 241.883 317.106 241.966 317.115L242.393 317.159L242.85 317.204L243.306 317.245L243.763 317.284L244.222 317.322L244.343 317.331C244.976 317.376 245.245 316.498 244.618 316.199C244.553 316.174 244.494 316.159 244.425 316.154L243.861 316.109L243.41 316.071L242.96 316.029L242.511 315.985L242.085 315.943ZM247.944 316.328C247.323 316.307 247.086 317.169 247.685 317.455C247.765 317.488 247.826 317.504 247.914 317.506H247.919L248.385 317.517L248.851 317.524L249.316 317.529L249.784 317.532L250.251 317.529L250.302 317.528C250.923 317.528 251.134 316.649 250.505 316.388C250.43 316.361 250.368 316.349 250.288 316.349H250.245L249.784 316.352L249.324 316.349L248.865 316.347L248.407 316.339L247.949 316.328H247.944ZM253.809 316.239C253.086 316.294 253.057 317.335 253.793 317.415C253.822 317.418 253.849 317.418 253.877 317.418L253.968 317.411L254.428 317.385L254.889 317.354L255.347 317.322L255.806 317.284L256.255 317.245C256.944 317.169 256.981 316.208 256.304 316.079C256.25 316.068 256.206 316.067 256.151 316.072L255.709 316.109L255.259 316.145L254.807 316.177L254.355 316.208L253.899 316.235L253.809 316.239ZM259.648 315.676C258.951 315.778 258.98 316.796 259.697 316.848C259.736 316.85 259.773 316.85 259.812 316.843L259.898 316.832L260.346 316.769L261.245 316.63L261.693 316.558L262.138 316.484L262.173 316.476C262.41 316.433 262.591 316.261 262.646 316.027C262.745 315.619 262.375 315.241 261.966 315.317L261.939 315.322L261.498 315.395L261.059 315.467L260.176 315.601L259.733 315.664L259.648 315.676ZM265.419 314.636C264.809 314.769 264.8 315.662 265.446 315.79C265.53 315.803 265.598 315.803 265.684 315.785L266.116 315.686L266.552 315.585L266.989 315.48L267.424 315.373L267.857 315.263L268.002 315.224C268.509 315.088 268.602 314.412 268.151 314.148C268.007 314.07 267.86 314.043 267.699 314.084L267.562 314.121L267.134 314.229L266.707 314.334L266.279 314.438L265.849 314.538L265.419 314.636ZM271.083 313.121C270.491 313.301 270.549 314.193 271.209 314.269C271.293 314.275 271.364 314.267 271.443 314.244L271.712 314.158L272.135 314.022L272.555 313.885L272.977 313.745L273.396 313.603L273.707 313.495C274.302 313.289 274.197 312.401 273.549 312.35C273.463 312.348 273.395 312.355 273.312 312.383L273.01 312.488L272.598 312.629L272.184 312.766L271.77 312.902L271.355 313.035L271.083 313.121ZM276.605 311.141C276.396 311.225 276.247 311.432 276.238 311.658C276.221 312.093 276.651 312.393 277.053 312.232L277.118 312.207L277.933 311.87L278.336 311.698L278.741 311.523L279.142 311.346L279.251 311.299C279.472 311.2 279.614 310.962 279.596 310.72C279.565 310.309 279.142 310.057 278.763 310.224L278.662 310.269L278.266 310.443L277.869 310.614L277.471 310.785L277.071 310.951L276.67 311.116L276.605 311.141ZM281.94 308.714C281.339 309.039 281.648 309.921 282.306 309.82C282.372 309.808 282.421 309.793 282.479 309.763L282.705 309.649L283.094 309.448L283.482 309.246L283.867 309.043L284.253 308.836L284.588 308.653C285.144 308.351 284.889 307.476 284.222 307.552C284.146 307.565 284.086 307.583 284.016 307.621L283.689 307.799L283.311 308.003L282.931 308.205L282.166 308.6L281.94 308.714ZM287.056 305.856C286.475 306.233 286.88 307.104 287.536 306.922C287.592 306.904 287.633 306.885 287.682 306.857L288.024 306.645L288.394 306.414L288.761 306.181L289.127 305.945L289.491 305.707L289.691 305.576C289.801 305.505 289.884 305.394 289.925 305.271C290.096 304.737 289.507 304.288 289.034 304.596L288.841 304.723L288.483 304.957L288.122 305.189L287.399 305.646L287.056 305.856ZM291.921 302.586C291.498 302.89 291.663 303.564 292.181 303.641C292.347 303.661 292.487 303.634 292.624 303.534L292.701 303.476L293.051 303.219L293.398 302.958L293.744 302.695L294.088 302.431L294.43 302.165L294.523 302.091C294.693 301.954 294.772 301.749 294.737 301.536C294.666 301.094 294.133 300.888 293.785 301.169L293.699 301.238L293.362 301.501L293.023 301.76L292.683 302.019L292.342 302.275L291.999 302.529L291.921 302.586ZM296.497 298.93C296.063 299.301 296.375 300.026 296.958 299.958C297.085 299.939 297.177 299.903 297.277 299.817L297.436 299.679L297.76 299.393L298.085 299.105L298.407 298.816L298.727 298.525L299.044 298.231L299.05 298.223C299.229 298.055 299.287 297.796 299.192 297.569C299.035 297.191 298.539 297.082 298.239 297.367L298.238 297.368L297.925 297.656L297.609 297.943L297.293 298.227L296.975 298.511L296.654 298.793L296.497 298.93ZM300.756 294.913C300.304 295.387 300.843 296.138 301.448 295.85C301.508 295.818 301.561 295.782 301.609 295.732L301.829 295.505L302.129 295.193L302.426 294.88L302.724 294.565L303.019 294.248L303.244 294.003C303.693 293.507 303.093 292.752 302.492 293.105C302.447 293.135 302.406 293.169 302.367 293.209L302.147 293.45L301.857 293.762L301.566 294.071L300.977 294.688L300.756 294.913ZM304.673 290.563C304.252 291.081 304.887 291.79 305.452 291.431C305.505 291.395 305.55 291.357 305.59 291.308L305.861 290.98L306.133 290.645L306.404 290.307L306.673 289.966L306.941 289.626L307.077 289.45C307.201 289.29 307.233 289.075 307.162 288.889C306.999 288.451 306.422 288.366 306.139 288.732L306.006 288.903L305.743 289.237L305.478 289.574L305.21 289.905L304.941 290.234L304.673 290.563ZM308.219 285.904C308.14 286.018 308.1 286.164 308.118 286.302C308.183 286.844 308.866 287.021 309.192 286.576L309.255 286.485L309.502 286.128L309.745 285.769L309.99 285.408L310.229 285.048L310.468 284.685L310.523 284.6C310.854 284.092 310.276 283.45 309.704 283.786C309.629 283.836 309.575 283.888 309.526 283.964L309.475 284.042L309.242 284.399L309.005 284.754L308.765 285.109L308.284 285.812L308.219 285.904ZM311.366 280.974C311.053 281.507 311.697 282.121 312.234 281.738C312.304 281.684 312.349 281.637 312.393 281.56L312.516 281.348L312.733 280.971L312.946 280.593L313.159 280.21L313.367 279.829L313.554 279.486C313.679 279.255 313.634 278.961 313.441 278.783C313.157 278.512 312.699 278.586 312.511 278.929L312.329 279.266L312.122 279.643L311.915 280.017L311.704 280.39L311.49 280.761L311.366 280.974ZM314.096 275.8C313.828 276.357 314.524 276.918 315.023 276.493C315.088 276.436 315.131 276.377 315.169 276.301L315.341 275.934L315.528 275.536L315.71 275.137L315.89 274.738L316.066 274.338L316.154 274.136C316.402 273.572 315.695 273.037 315.207 273.472C315.143 273.53 315.102 273.591 315.066 273.671L314.982 273.864L314.807 274.258L314.63 274.652L314.27 275.435L314.096 275.8ZM318.22 264.87C318.152 265.126 318.253 265.387 318.477 265.528C318.807 265.738 319.258 265.562 319.36 265.185L319.473 264.784L319.592 264.355L319.708 263.924L319.821 263.494L319.93 263.061L319.974 262.889C320.006 262.74 319.992 262.607 319.919 262.471C319.661 261.997 318.961 262.082 318.824 262.611L318.782 262.775L318.675 263.199L318.564 263.623L318.451 264.047L318.335 264.468L318.22 264.87ZM319.587 259.187C319.46 259.856 320.39 260.171 320.699 259.556C320.721 259.507 320.738 259.459 320.748 259.407L320.803 259.126L320.887 258.684L320.967 258.243L321.045 257.798L321.121 257.352L321.166 257.069C321.266 256.406 320.367 256.114 320.054 256.711C320.028 256.769 320.008 256.819 319.999 256.883L319.953 257.16L319.879 257.597L319.803 258.034L319.723 258.471L319.641 258.906L319.587 259.187ZM320.474 253.408C320.445 253.666 320.593 253.916 320.834 254.016C321.2 254.167 321.607 253.926 321.651 253.535L321.676 253.309L321.724 252.855L321.769 252.401L321.812 251.945L321.849 251.489L321.875 251.171C321.886 251.035 321.848 250.896 321.769 250.786C321.446 250.333 320.736 250.534 320.696 251.08L320.671 251.393L320.632 251.84L320.591 252.288L320.547 252.736L320.499 253.182L320.474 253.408ZM320.883 247.577C320.86 248.196 321.728 248.433 322.012 247.837C322.047 247.756 322.063 247.696 322.065 247.608L322.073 247.349L322.084 246.886L322.091 246.422L322.095 245.956L322.096 245.49L322.095 245.233C322.095 244.591 321.183 244.41 320.946 245.036C320.923 245.102 320.913 245.17 320.913 245.24V245.948L320.9 246.862L320.891 247.318L320.883 247.577ZM320.814 241.734C320.869 242.454 321.913 242.484 321.994 241.748C321.997 241.72 321.997 241.695 321.997 241.668L321.979 241.323L321.949 240.865L321.918 240.407L321.886 239.947L321.849 239.491L321.833 239.297C321.756 238.608 320.79 238.574 320.659 239.25C320.653 239.302 320.65 239.346 320.654 239.4L320.671 239.587L320.707 240.036L320.739 240.487L320.769 240.939L320.796 241.391L320.814 241.734ZM320.27 235.914C320.372 236.61 321.393 236.58 321.447 235.868C321.447 235.828 321.447 235.79 321.442 235.751L321.394 235.414L321.331 234.966L321.263 234.52L321.195 234.072L321.121 233.627L321.083 233.403C320.987 232.887 320.337 232.736 320.02 233.156C319.93 233.285 319.888 233.446 319.917 233.603L319.953 233.82L320.024 234.258L320.094 234.697L320.16 235.137L320.223 235.58L320.27 235.914ZM319.244 230.161C319.389 230.809 320.359 230.759 320.412 230.065C320.416 230.006 320.412 229.957 320.399 229.902L320.345 229.657L320.244 229.222L320.143 228.785L320.037 228.352L319.93 227.919L319.847 227.59C319.664 226.917 318.657 227.045 318.684 227.78C318.688 227.817 318.692 227.848 318.701 227.884L318.782 228.205L318.887 228.631L318.992 229.059L319.093 229.486L319.19 229.916L319.244 230.161ZM317.743 224.509C317.936 225.129 318.874 225.03 318.9 224.341C318.9 224.277 318.892 224.219 318.873 224.16L318.846 224.068L318.712 223.644L318.577 223.225L318.438 222.804L318.296 222.383L318.155 221.967L318.13 221.897C317.923 221.305 317.031 221.409 316.98 222.054C316.978 222.141 316.984 222.208 317.014 222.289L317.036 222.351L317.315 223.174L317.45 223.587L317.586 224.002L317.716 224.417L317.743 224.509ZM315.779 219.005C315.863 219.214 316.073 219.362 316.299 219.371C316.733 219.387 317.036 218.96 316.874 218.559L316.751 218.258L316.584 217.853L316.414 217.449L316.24 217.044L316.066 216.642L315.946 216.37C315.684 215.776 314.763 215.989 314.816 216.665C314.824 216.733 314.836 216.787 314.865 216.849L314.982 217.115L315.155 217.51L315.323 217.906L315.491 218.305L315.657 218.704L315.779 219.005ZM313.361 213.678C313.64 214.236 314.506 214.026 314.48 213.383C314.475 213.296 314.458 213.227 314.418 213.147L314.385 213.082L314.185 212.692L313.984 212.305L313.781 211.918L313.576 211.535L313.367 211.15L313.308 211.04C313.006 210.484 312.127 210.741 312.203 211.404C312.216 211.48 312.234 211.54 312.272 211.608L312.329 211.713L312.533 212.09L312.735 212.47L312.935 212.848L313.327 213.613L313.361 213.678ZM310.51 208.573C310.85 209.131 311.749 208.79 311.585 208.111C311.569 208.052 311.549 208.003 311.518 207.955L311.4 207.762L311.171 207.395L310.938 207.027L310.705 206.66L310.468 206.295L310.238 205.948C309.886 205.407 309.014 205.758 309.172 206.422C309.192 206.487 309.215 206.54 309.253 206.597L309.475 206.939L309.708 207.297L309.938 207.656L310.166 208.019L310.392 208.38L310.51 208.573ZM307.246 203.718C307.552 204.136 308.227 203.973 308.307 203.458C308.326 203.293 308.298 203.152 308.198 203.016L307.99 202.734L307.73 202.385L307.47 202.041L307.206 201.697L306.941 201.353L306.759 201.122C306.325 200.588 305.486 201.084 305.752 201.724C305.774 201.77 305.796 201.809 305.83 201.851L306.006 202.076L306.267 202.414L306.526 202.752L306.782 203.092L307.037 203.434L307.246 203.718ZM303.592 199.143C304.019 199.64 304.848 199.158 304.579 198.516C304.552 198.459 304.527 198.418 304.487 198.371L304.462 198.344L304.178 198.017L303.892 197.695L303.602 197.372L303.311 197.051L303.019 196.733L302.893 196.597C302.438 196.12 301.663 196.624 301.915 197.23C301.945 197.295 301.98 197.348 302.027 197.401L302.147 197.529L302.437 197.844L302.721 198.159L303.006 198.476L303.288 198.795L303.567 199.116L303.592 199.143ZM299.574 194.884C300.066 195.35 300.82 194.776 300.509 194.186C300.478 194.131 300.446 194.082 300.401 194.041L300.301 193.941L299.989 193.64L299.676 193.341L299.362 193.043L299.044 192.748L298.727 192.455L298.669 192.402C298.168 191.954 297.414 192.553 297.768 193.151C297.797 193.196 297.832 193.238 297.872 193.274L297.925 193.323L298.238 193.612L298.551 193.903L298.86 194.195L299.167 194.489L299.574 194.884ZM295.22 190.967C295.758 191.4 296.478 190.728 296.075 190.164C296.044 190.124 296.013 190.09 295.974 190.058L295.781 189.899L295.446 189.626L295.11 189.354L294.77 189.082L294.43 188.814L294.115 188.569C293.604 188.178 292.908 188.772 293.25 189.345C293.287 189.407 293.333 189.457 293.389 189.5L293.699 189.741L294.034 190.004L294.366 190.271L294.699 190.539L295.028 190.809L295.22 190.967ZM290.56 187.42C290.674 187.498 290.82 187.538 290.96 187.521C291.505 187.457 291.683 186.774 291.233 186.45L290.933 186.242L290.575 185.996L290.216 185.753L289.854 185.512L289.491 185.271L289.259 185.12C288.704 184.759 288.052 185.456 288.48 185.991C288.521 186.037 288.563 186.075 288.614 186.107L288.841 186.255L289.197 186.492L289.553 186.729L289.907 186.969L290.26 187.212L290.56 187.42ZM285.619 184.265C286.139 184.568 286.742 183.987 286.418 183.44C286.361 183.357 286.302 183.295 286.214 183.247L286.156 183.212L285.779 182.994L285.399 182.777L285.019 182.564L284.637 182.354L284.253 182.145L284.133 182.079C283.902 181.954 283.607 182.001 283.428 182.191C283.156 182.476 283.231 182.932 283.574 183.12L283.689 183.179L284.065 183.385L284.442 183.594L284.816 183.805L285.188 184.016L285.561 184.231L285.619 184.265ZM280.438 181.528C281.016 181.804 281.577 181.07 281.113 180.582C281.062 180.531 281.01 180.493 280.944 180.462L280.74 180.364L280.344 180.178L279.943 179.995L279.544 179.814L279.142 179.634L278.777 179.473C278.169 179.206 277.642 180.004 278.15 180.455C278.197 180.496 278.244 180.527 278.302 180.553L278.662 180.711L279.055 180.886L279.45 181.066L279.842 181.247L280.233 181.43L280.438 181.528ZM275.048 179.226C275.643 179.433 276.099 178.731 275.693 178.28C275.622 178.205 275.556 178.159 275.461 178.122L275.062 177.973L274.647 177.819L274.233 177.669L273.814 177.523L273.396 177.378L273.218 177.316C272.619 177.11 272.149 177.883 272.637 178.318C272.699 178.37 272.761 178.405 272.837 178.432L273.01 178.493L273.422 178.634L273.832 178.78L274.242 178.928L274.649 179.078L275.048 179.226ZM269.48 177.379C270.116 177.55 270.514 176.734 269.994 176.339C269.93 176.294 269.879 176.268 269.803 176.245L269.581 176.181L269.152 176.062L268.721 175.944L268.289 175.83L267.857 175.717L267.5 175.627C266.884 175.468 266.468 176.29 267.027 176.689C267.089 176.726 267.142 176.752 267.213 176.77L267.562 176.86L267.988 176.97L268.411 177.082L268.835 177.198L269.257 177.316L269.48 177.379ZM263.78 175.998C264.47 176.125 264.773 175.172 264.134 174.882C264.09 174.864 264.054 174.851 264.009 174.842L263.916 174.824L263.472 174.739L263.029 174.656L262.584 174.574L262.138 174.495L261.693 174.421L261.658 174.416C260.994 174.318 260.701 175.214 261.3 175.523C261.358 175.55 261.409 175.57 261.473 175.579L261.498 175.583L261.939 175.658L262.376 175.733L262.813 175.813L263.249 175.895L263.685 175.98L263.78 175.998ZM257.983 175.093C258.185 175.115 258.384 175.034 258.511 174.876C258.802 174.513 258.578 173.973 258.118 173.921L258.087 173.918L257.177 173.819L256.721 173.776L256.264 173.735L255.806 173.695L255.74 173.689C255.604 173.68 255.466 173.717 255.355 173.796C254.902 174.118 255.101 174.824 255.649 174.865L255.709 174.869L256.16 174.907L256.609 174.951L257.057 174.994L257.507 175.039L257.952 175.091L257.983 175.093Z" fill="#292929"/>
<mask id="mask0_105_194" style="mask-type:luminance" maskUnits="userSpaceOnUse" x="164" y="160" width="172" height="171">
<path d="M164 160H335.572V330.93H164V160Z" fill="white"/>
</mask>
<g mask="url(#mask0_105_194)">
<path fill-rule="evenodd" clip-rule="evenodd" d="M249.783 160.022C297.164 160.022 335.573 198.288 335.573 245.491C335.573 292.692 297.164 330.957 249.783 330.957C202.406 330.957 163.996 292.692 163.996 245.491C163.996 198.288 202.406 160.022 249.783 160.022ZM183.912 217.82C186.807 222.595 189.773 226.661 193.096 227.016C202.724 226.092 212.351 225.166 221.979 224.241C222.85 224.158 224.493 223.741 225.336 223.464C231.404 221.468 238.828 220.61 247.032 220.861H252.538C260.741 220.61 268.165 221.468 274.234 223.464C275.076 223.741 276.719 224.158 277.591 224.241C287.218 225.166 296.846 226.092 306.471 227.016C309.797 226.661 312.762 222.595 315.658 217.82C314.012 213.936 312.031 210.228 309.749 206.734C306.272 204.417 301.931 200.896 297.486 196.669C292.762 192.178 288.843 187.765 286.372 184.314C275.668 177.946 263.157 174.284 249.783 174.284C236.413 174.284 223.9 177.946 213.197 184.314C210.728 187.765 206.808 192.178 202.084 196.669C197.639 200.896 193.297 204.417 189.821 206.734C187.539 210.228 185.559 213.936 183.912 217.82ZM320.609 255.101C317.697 254.325 314.596 254.211 311.038 254.303C302.658 257.424 294.277 260.546 285.897 263.667C284.156 264.314 282.593 265.65 281.392 267.031C277.977 270.949 276.459 274.702 274.692 278.179C270.801 285.838 267.081 295.871 264.077 303.201C262.848 306.199 264.622 308.306 269.179 311.506C270.033 312.104 271.021 312.656 272.061 313.164C297.675 304.799 316.909 282.407 320.609 255.101ZM227.509 313.164C228.548 312.656 229.536 312.104 230.391 311.506C234.946 308.306 236.721 306.199 235.492 303.201C232.488 295.871 228.768 285.838 224.875 278.179C223.111 274.702 221.591 270.949 218.179 267.031C216.976 265.65 215.413 264.314 213.672 263.667C205.293 260.546 196.911 257.424 188.533 254.303C184.974 254.211 181.872 254.325 178.961 255.101C182.661 282.407 201.893 304.799 227.509 313.164Z" fill="#2E2E2E"/>
</g>
<path fill-rule="evenodd" clip-rule="evenodd" d="M249.784 163.258C272.578 163.258 293.213 172.462 308.151 187.344C323.087 202.224 332.327 222.782 332.327 245.49C332.327 268.197 323.087 288.757 308.151 303.636C293.213 318.517 272.578 327.721 249.784 327.721C226.992 327.721 206.358 318.517 191.42 303.636C176.484 288.757 167.244 268.197 167.244 245.49C167.244 222.782 176.484 202.224 191.42 187.344C206.358 172.462 226.992 163.258 249.784 163.258ZM307.467 188.024C292.706 173.318 272.312 164.222 249.784 164.222C227.259 164.222 206.865 173.318 192.104 188.024C177.342 202.731 168.21 223.048 168.21 245.49C168.21 267.932 177.342 288.249 192.104 302.956C206.865 317.662 227.259 326.759 249.784 326.759C272.312 326.759 292.706 317.662 307.467 302.956C322.228 288.249 331.358 267.932 331.358 245.49C331.358 223.048 322.228 202.731 307.467 188.024Z" fill="#FFC000"/>
</g>
<path d="M148 265H352V346H148V265Z" fill="white"/>
<g filter="url(#filter2_d_105_194)">
<path fill-rule="evenodd" clip-rule="evenodd" d="M183.065 235.168C236.617 226.719 263.73 226.719 317.284 235.168C320.045 235.771 320.936 236.328 320.842 237.391C320.779 238.01 320.712 238.624 320.641 239.227C320.095 243.821 319.186 247.869 316.441 249.797C308.692 254.921 296.345 258.463 286.31 262.278C280.787 264.376 279.288 266.907 276.198 271.442C272.137 277.399 268.077 283.358 264.014 289.315C258.301 297.702 242.046 297.702 236.333 289.315C232.272 283.358 228.212 277.399 224.151 271.442C221.058 266.907 219.561 264.376 214.038 262.278C204.004 258.463 191.656 254.921 183.907 249.797C181.162 247.869 180.254 243.821 179.708 239.227C179.634 238.624 179.569 238.01 179.507 237.391C179.41 236.328 180.304 235.771 183.065 235.168Z" fill="#D0D0D0"/>
<path fill-rule="evenodd" clip-rule="evenodd" d="M185.246 236.715L218.07 232.641C214.378 237.416 213.342 243.542 217.515 251.763C219.103 254.891 220.594 257.704 222.05 260.33C211.448 259.565 201.798 255.178 191.293 251.346C185.685 249.3 184.49 248.999 183.026 243.23L181.961 239.047C181.546 237.406 183.563 236.923 185.246 236.715ZM281.501 232.641L314.323 236.715C316.009 236.923 318.025 237.406 317.609 239.047L316.544 243.23C315.08 248.999 313.885 249.3 308.277 251.346C297.771 255.178 288.123 259.565 277.521 260.33C278.978 257.704 280.468 254.891 282.056 251.763C286.227 243.542 285.192 237.416 281.501 232.641Z" fill="#292929"/>
<mask id="path-10-inside-1_105_194" fill="white">
<path d="M185.23 236.597L218.055 232.523L218.335 232.487L218.162 232.712C216.333 235.081 215.158 237.787 214.96 240.917C214.764 244.052 215.544 247.619 217.62 251.707C218.415 253.274 219.183 254.758 219.935 256.179C220.686 257.597 221.422 258.955 222.154 260.271L222.259 260.462L222.041 260.447C213.343 259.82 205.295 256.76 196.892 253.569C195.034 252.862 193.159 252.15 191.252 251.456V251.455L190.842 251.306C185.537 249.374 184.353 248.944 182.909 243.259L181.846 239.073C181.621 238.189 182.051 237.616 182.761 237.239C183.44 236.878 184.379 236.703 185.23 236.597ZM217.806 232.791L185.26 236.832C184.431 236.935 183.516 237.105 182.871 237.448C182.256 237.774 181.885 238.264 182.075 239.015L183.14 243.202C184.554 248.765 185.713 249.188 190.921 251.083L191.333 251.233C193.237 251.927 195.116 252.641 196.977 253.348C205.293 256.509 213.262 259.536 221.838 260.196C221.147 258.946 220.445 257.647 219.727 256.288C218.973 254.863 218.203 253.378 217.409 251.815C215.313 247.685 214.526 244.077 214.726 240.902C214.919 237.82 216.044 235.144 217.806 232.791ZM281.516 232.523L314.338 236.597C315.191 236.703 316.129 236.878 316.808 237.239C317.52 237.616 317.949 238.189 317.723 239.073L316.658 243.259C315.215 248.944 314.034 249.374 308.729 251.306L308.316 251.456C306.421 252.146 304.541 252.861 302.677 253.569C294.274 256.76 286.227 259.82 277.529 260.447L277.31 260.462L277.416 260.271C278.147 258.955 278.885 257.597 279.634 256.179C280.385 254.758 281.155 253.274 281.949 251.707C284.025 247.619 284.805 244.052 284.61 240.917C284.411 237.787 283.238 235.081 281.407 232.712L281.235 232.487L281.516 232.523ZM314.309 236.832L281.764 232.791C283.525 235.144 284.65 237.82 284.844 240.902C285.045 244.077 284.257 247.685 282.161 251.815C281.366 253.378 280.596 254.863 279.843 256.288C279.123 257.649 278.42 258.946 277.729 260.196C286.309 259.536 294.277 256.508 302.592 253.348C304.448 252.643 306.321 251.933 308.236 251.233L308.649 251.083C313.858 249.188 315.017 248.765 316.429 243.202L317.494 239.015C317.685 238.264 317.313 237.774 316.697 237.448C316.051 237.105 315.14 236.935 314.309 236.832Z"/>
</mask>
<path d="M185.23 236.597L218.055 232.523L218.335 232.487L218.162 232.712C216.333 235.081 215.158 237.787 214.96 240.917C214.764 244.052 215.544 247.619 217.62 251.707C218.415 253.274 219.183 254.758 219.935 256.179C220.686 257.597 221.422 258.955 222.154 260.271L222.259 260.462L222.041 260.447C213.343 259.82 205.295 256.76 196.892 253.569C195.034 252.862 193.159 252.15 191.252 251.456V251.455L190.842 251.306C185.537 249.374 184.353 248.944 182.909 243.259L181.846 239.073C181.621 238.189 182.051 237.616 182.761 237.239C183.44 236.878 184.379 236.703 185.23 236.597ZM217.806 232.791L185.26 236.832C184.431 236.935 183.516 237.105 182.871 237.448C182.256 237.774 181.885 238.264 182.075 239.015L183.14 243.202C184.554 248.765 185.713 249.188 190.921 251.083L191.333 251.233C193.237 251.927 195.116 252.641 196.977 253.348C205.293 256.509 213.262 259.536 221.838 260.196C221.147 258.946 220.445 257.647 219.727 256.288C218.973 254.863 218.203 253.378 217.409 251.815C215.313 247.685 214.526 244.077 214.726 240.902C214.919 237.82 216.044 235.144 217.806 232.791ZM281.516 232.523L314.338 236.597C315.191 236.703 316.129 236.878 316.808 237.239C317.52 237.616 317.949 238.189 317.723 239.073L316.658 243.259C315.215 248.944 314.034 249.374 308.729 251.306L308.316 251.456C306.421 252.146 304.541 252.861 302.677 253.569C294.274 256.76 286.227 259.82 277.529 260.447L277.31 260.462L277.416 260.271C278.147 258.955 278.885 257.597 279.634 256.179C280.385 254.758 281.155 253.274 281.949 251.707C284.025 247.619 284.805 244.052 284.61 240.917C284.411 237.787 283.238 235.081 281.407 232.712L281.235 232.487L281.516 232.523ZM314.309 236.832L281.764 232.791C283.525 235.144 284.65 237.82 284.844 240.902C285.045 244.077 284.257 247.685 282.161 251.815C281.366 253.378 280.596 254.863 279.843 256.288C279.123 257.649 278.42 258.946 277.729 260.196C286.309 259.536 294.277 256.508 302.592 253.348C304.448 252.643 306.321 251.933 308.236 251.233L308.649 251.083C313.858 249.188 315.017 248.765 316.429 243.202L317.494 239.015C317.685 238.264 317.313 237.774 316.697 237.448C316.051 237.105 315.14 236.935 314.309 236.832Z" fill="black"/>
<path d="M185.23 236.597L185.721 240.567L185.723 240.567L185.23 236.597ZM218.055 232.523L218.548 236.493L218.557 236.492L218.565 236.491L218.055 232.523ZM218.335 232.487L221.506 234.925L227.372 227.293L217.825 228.52L218.335 232.487ZM218.162 232.712L221.328 235.157L221.334 235.149L218.162 232.712ZM214.96 240.917L210.968 240.664L210.968 240.667L214.96 240.917ZM217.62 251.707L221.187 249.898L221.187 249.897L217.62 251.707ZM219.935 256.179L216.4 258.05L216.4 258.051L219.935 256.179ZM222.154 260.271L225.655 258.337L225.65 258.328L222.154 260.271ZM222.259 260.462L221.979 264.453L229.318 264.969L225.761 258.528L222.259 260.462ZM222.041 260.447L221.753 264.437L221.76 264.437L222.041 260.447ZM196.892 253.569L195.47 257.307L195.472 257.308L196.892 253.569ZM191.252 251.456H187.252V254.257L189.884 255.215L191.252 251.456ZM191.252 251.455H195.252V248.649L192.615 247.694L191.252 251.455ZM190.842 251.306L189.473 255.064L189.479 255.067L190.842 251.306ZM182.909 243.259L179.031 244.243L179.032 244.244L182.909 243.259ZM181.846 239.073L185.723 238.089L185.722 238.085L181.846 239.073ZM182.761 237.239L180.887 233.705L180.883 233.707L182.761 237.239ZM217.806 232.791L221.008 235.189L226.642 227.664L217.313 228.822L217.806 232.791ZM185.26 236.832L185.751 240.802L185.753 240.802L185.26 236.832ZM182.871 237.448L184.743 240.983L184.747 240.981L182.871 237.448ZM182.075 239.015L178.198 239.998L178.199 240.001L182.075 239.015ZM183.14 243.202L187.017 242.217L187.017 242.217L183.14 243.202ZM190.921 251.083L192.29 247.324L192.289 247.324L190.921 251.083ZM191.333 251.233L192.704 247.475L192.702 247.474L191.333 251.233ZM196.977 253.348L198.398 249.609L198.398 249.609L196.977 253.348ZM221.838 260.196L221.532 264.184L228.932 264.753L225.338 258.259L221.838 260.196ZM219.727 256.288L216.19 258.157L216.191 258.158L219.727 256.288ZM217.409 251.815L213.842 253.625L213.843 253.628L217.409 251.815ZM214.726 240.902L218.718 241.153L218.718 241.153L214.726 240.902ZM281.516 232.523L281.008 236.491L281.015 236.492L281.023 236.493L281.516 232.523ZM314.338 236.597L313.845 240.567L313.848 240.567L314.338 236.597ZM316.808 237.239L314.931 240.771L314.936 240.774L316.808 237.239ZM317.723 239.073L313.847 238.085L313.847 238.087L317.723 239.073ZM316.658 243.259L312.782 242.273L312.781 242.275L316.658 243.259ZM308.729 251.306L310.095 255.066L310.098 255.064L308.729 251.306ZM308.316 251.456L306.951 247.696L306.947 247.697L308.316 251.456ZM302.677 253.569L304.098 257.308L304.099 257.308L302.677 253.569ZM277.529 260.447L277.81 264.437L277.817 264.437L277.529 260.447ZM277.31 260.462L273.809 258.528L270.251 264.969L277.591 264.453L277.31 260.462ZM277.416 260.271L273.919 258.328L273.914 258.337L277.416 260.271ZM279.634 256.179L283.171 258.049L283.171 258.047L279.634 256.179ZM281.949 251.707L278.383 249.897L278.382 249.898L281.949 251.707ZM284.61 240.917L288.602 240.667L288.602 240.664L284.61 240.917ZM281.407 232.712L278.236 235.149L278.242 235.158L281.407 232.712ZM281.235 232.487L281.743 228.52L272.202 227.299L278.063 234.925L281.235 232.487ZM314.309 236.832L313.816 240.802L313.819 240.802L314.309 236.832ZM281.764 232.791L282.257 228.822L272.928 227.663L278.562 235.189L281.764 232.791ZM284.844 240.902L280.852 241.154L280.852 241.155L284.844 240.902ZM282.161 251.815L285.726 253.628L285.728 253.625L282.161 251.815ZM279.843 256.288L283.379 258.158L283.379 258.157L279.843 256.288ZM277.729 260.196L274.229 258.259L270.635 264.753L278.035 264.184L277.729 260.196ZM302.592 253.348L304.013 257.087L304.014 257.087L302.592 253.348ZM308.236 251.233L306.871 247.473L306.862 247.476L308.236 251.233ZM308.649 251.083L310.015 254.842L310.017 254.842L308.649 251.083ZM316.429 243.202L312.553 242.217L312.552 242.218L316.429 243.202ZM317.494 239.015L321.371 240.001L321.371 239.998L317.494 239.015ZM316.697 237.448L314.824 240.982L314.826 240.983L316.697 237.448ZM185.723 240.567L218.548 236.493L217.563 228.554L184.737 232.628L185.723 240.567ZM218.565 236.491L218.845 236.455L217.825 228.52L217.545 228.556L218.565 236.491ZM215.163 230.05L214.991 230.274L221.334 235.149L221.506 234.925L215.163 230.05ZM214.996 230.267C212.753 233.172 211.224 236.624 210.968 240.664L218.952 241.169C219.093 238.949 219.912 236.99 221.328 235.157L214.996 230.267ZM210.968 240.667C210.717 244.678 211.738 248.958 214.053 253.518L221.187 249.897C219.351 246.281 218.811 243.425 218.952 241.166L210.968 240.667ZM214.053 253.517C214.857 255.102 215.636 256.607 216.4 258.05L223.471 254.309C222.73 252.909 221.972 251.445 221.187 249.898L214.053 253.517ZM216.4 258.051C217.163 259.491 217.912 260.873 218.657 262.214L225.65 258.328C224.933 257.037 224.209 255.702 223.47 254.307L216.4 258.051ZM218.653 262.205L218.758 262.397L225.761 258.528L225.655 258.337L218.653 262.205ZM222.54 256.472L222.321 256.457L221.76 264.437L221.979 264.453L222.54 256.472ZM222.328 256.457C214.314 255.879 206.814 253.058 198.312 249.829L195.472 257.308C203.776 260.462 212.372 263.76 221.753 264.437L222.328 256.457ZM198.314 249.83C196.458 249.124 194.558 248.402 192.62 247.697L189.884 255.215C191.76 255.898 193.61 256.6 195.47 257.307L198.314 249.83ZM195.252 251.456V251.455H187.252V251.456H195.252ZM192.615 247.694L192.204 247.545L189.479 255.067L189.89 255.216L192.615 247.694ZM192.21 247.547C189.254 246.471 188.561 246.142 188.151 245.761C187.931 245.556 187.491 245.053 186.785 242.274L179.032 244.244C179.77 247.151 180.645 249.705 182.704 251.619C184.573 253.357 187.124 254.209 189.473 255.064L192.21 247.547ZM186.786 242.275L185.723 238.089L177.969 240.057L179.031 244.243L186.786 242.275ZM185.722 238.085C185.829 238.504 185.839 239.211 185.445 239.916C185.111 240.515 184.687 240.745 184.638 240.771L180.883 233.707C180.125 234.11 179.131 234.815 178.46 236.016C177.731 237.323 177.638 238.759 177.97 240.061L185.722 238.085ZM184.634 240.773C184.569 240.807 184.62 240.771 184.864 240.712C185.09 240.658 185.375 240.61 185.721 240.567L184.74 232.628C183.852 232.737 182.269 232.972 180.887 233.705L184.634 240.773ZM217.313 228.822L184.767 232.863L185.753 240.802L218.298 236.761L217.313 228.822ZM184.768 232.862C183.917 232.968 182.349 233.197 180.995 233.915L184.747 240.981C184.656 241.029 184.686 240.998 184.923 240.941C185.138 240.89 185.415 240.843 185.751 240.802L184.768 232.862ZM181 233.913C180.298 234.284 179.344 234.948 178.691 236.099C177.976 237.361 177.881 238.749 178.198 239.998L185.953 238.032C186.079 238.53 186.074 239.298 185.651 240.045C185.29 240.681 184.829 240.937 184.743 240.983L181 233.913ZM178.199 240.001L179.264 244.188L187.017 242.217L185.952 238.03L178.199 240.001ZM179.264 244.188C179.987 247.033 180.848 249.556 182.886 251.449C184.733 253.164 187.253 254.005 189.554 254.842L192.289 247.324C189.382 246.266 188.718 245.947 188.33 245.587C188.133 245.404 187.708 244.934 187.017 242.217L179.264 244.188ZM189.552 254.841L189.964 254.991L192.702 247.474L192.29 247.324L189.552 254.841ZM189.963 254.991C191.837 255.674 193.691 256.379 195.557 257.087L198.398 249.609C196.542 248.904 194.636 248.18 192.704 247.475L189.963 254.991ZM195.556 257.087C203.775 260.211 212.283 263.473 221.532 264.184L222.145 256.207C214.24 255.6 206.81 252.807 198.398 249.609L195.556 257.087ZM225.338 258.259C224.66 257.034 223.971 255.757 223.263 254.418L216.191 258.158C216.92 259.536 217.633 260.858 218.339 262.132L225.338 258.259ZM223.263 254.419C222.52 253.014 221.76 251.547 220.975 250.002L213.843 253.628C214.647 255.208 215.427 256.713 216.19 258.157L223.263 254.419ZM220.976 250.005C219.12 246.349 218.573 243.454 218.718 241.153L210.733 240.651C210.479 244.701 211.505 249.02 213.842 253.625L220.976 250.005ZM218.718 241.153C218.856 238.95 219.647 237.006 221.008 235.189L214.604 230.394C212.441 233.282 210.982 236.69 210.733 240.652L218.718 241.153ZM281.023 236.493L313.845 240.567L314.831 232.628L282.008 228.554L281.023 236.493ZM313.848 240.567C314.194 240.61 314.48 240.658 314.706 240.712C314.949 240.77 314.999 240.807 314.931 240.771L318.684 233.706C317.302 232.972 315.716 232.737 314.828 232.627L313.848 240.567ZM314.936 240.774C314.887 240.748 314.461 240.518 314.124 239.916C313.73 239.209 313.741 238.501 313.847 238.085L321.599 240.061C321.931 238.761 321.84 237.325 321.11 236.016C320.437 234.812 319.441 234.107 318.68 233.704L314.936 240.774ZM313.847 238.087L312.782 242.273L320.535 244.245L321.6 240.059L313.847 238.087ZM312.781 242.275C312.076 245.054 311.636 245.557 311.417 245.762C311.009 246.142 310.317 246.471 307.361 247.547L310.098 255.064C312.447 254.209 314.998 253.357 316.867 251.618C318.925 249.703 319.798 247.149 320.535 244.243L312.781 242.275ZM307.364 247.546L306.951 247.696L309.681 255.216L310.095 255.066L307.364 247.546ZM306.947 247.697C305.021 248.399 303.115 249.123 301.256 249.83L304.099 257.308C305.966 256.598 307.82 255.894 309.685 255.215L306.947 247.697ZM301.257 249.829C292.756 253.058 285.256 255.879 277.241 256.457L277.817 264.437C287.198 263.76 295.793 260.462 304.098 257.308L301.257 249.829ZM277.248 256.457L277.03 256.472L277.591 264.453L277.81 264.437L277.248 256.457ZM280.811 262.397L280.917 262.205L273.914 258.337L273.809 258.528L280.811 262.397ZM280.912 262.214C281.656 260.875 282.408 259.492 283.171 258.049L276.098 254.31C275.362 255.702 274.638 257.036 273.919 258.328L280.912 262.214ZM283.171 258.047C283.932 256.608 284.712 255.104 285.517 253.517L278.382 249.898C277.598 251.443 276.838 252.908 276.097 254.311L283.171 258.047ZM285.516 253.518C287.832 248.958 288.852 244.678 288.602 240.667L280.617 241.166C280.758 243.425 280.219 246.281 278.383 249.897L285.516 253.518ZM288.602 240.664C288.346 236.625 286.818 233.172 284.572 230.266L278.242 235.158C279.658 236.99 280.477 238.948 280.618 241.169L288.602 240.664ZM284.579 230.274L284.406 230.05L278.063 234.925L278.236 235.149L284.579 230.274ZM280.727 236.455L281.008 236.491L282.023 228.556L281.743 228.52L280.727 236.455ZM314.801 232.863L282.257 228.822L281.271 236.761L313.816 240.802L314.801 232.863ZM278.562 235.189C279.922 237.005 280.713 238.95 280.852 241.154L288.836 240.651C288.586 236.69 287.129 233.283 284.966 230.394L278.562 235.189ZM280.852 241.155C280.997 243.453 280.45 246.348 278.594 250.005L285.728 253.625C288.064 249.021 289.092 244.702 288.836 240.65L280.852 241.155ZM278.595 250.002C277.81 251.547 277.049 253.014 276.306 254.419L283.379 258.157C284.143 256.713 284.923 255.208 285.726 253.628L278.595 250.002ZM276.307 254.418C275.6 255.756 274.909 257.031 274.229 258.259L281.228 262.132C281.932 260.862 282.647 259.543 283.379 258.158L276.307 254.418ZM278.035 264.184C287.288 263.473 295.795 260.21 304.013 257.087L301.172 249.609C292.759 252.805 285.331 255.6 277.422 256.207L278.035 264.184ZM304.014 257.087C305.868 256.382 307.721 255.68 309.61 254.989L306.862 247.476C304.922 248.186 303.028 248.903 301.171 249.609L304.014 257.087ZM309.601 254.993L310.015 254.842L307.284 247.323L306.871 247.473L309.601 254.993ZM310.017 254.842C312.318 254.005 314.838 253.164 316.685 251.449C318.723 249.555 319.584 247.033 320.306 244.187L312.552 242.218C311.862 244.935 311.437 245.405 311.24 245.587C310.853 245.947 310.189 246.266 307.282 247.324L310.017 254.842ZM320.306 244.188L321.371 240.001L313.617 238.03L312.553 242.217L320.306 244.188ZM321.371 239.998C321.689 238.746 321.592 237.357 320.876 236.096C320.223 234.947 319.269 234.284 318.569 233.913L314.826 240.983C314.74 240.938 314.281 240.683 313.92 240.048C313.496 239.302 313.49 238.533 313.617 238.032L321.371 239.998ZM318.57 233.913C317.218 233.197 315.658 232.968 314.798 232.862L313.819 240.802C314.155 240.843 314.43 240.89 314.645 240.941C314.879 240.997 314.911 241.029 314.824 240.982L318.57 233.913Z" fill="#FFC000" mask="url(#path-10-inside-1_105_194)"/>
<path fill-rule="evenodd" clip-rule="evenodd" d="M272.613 225.385C282.104 230.853 288.715 238.643 282.055 251.763C275.018 265.618 269.923 273.341 260.969 285.566C259.96 286.944 259.662 287.058 258.01 287.494C255.575 288.137 253.967 288.325 251.702 288.361V288.367H247.868V288.361C245.603 288.325 243.993 288.137 241.559 287.494C239.907 287.058 239.608 286.944 238.6 285.566C229.646 273.341 224.55 265.618 217.514 251.763C210.853 238.643 217.465 230.853 226.956 225.385C232.707 223.744 239.543 223.049 247.031 223.279H252.537C260.023 223.049 266.862 223.744 272.613 225.385Z" fill="#292929"/>
<path d="M259.754 277.068L259.754 277.069C259.298 277.693 259.024 277.996 258.698 278.201C258.366 278.409 257.963 278.526 257.204 278.727L257.204 278.727C255.009 279.307 253.566 279.474 251.523 279.507L251.277 279.511V279.515H248.292V279.511L248.046 279.507C246.004 279.474 244.56 279.307 242.368 278.727L242.368 278.727C241.608 278.526 241.204 278.409 240.872 278.201C240.546 277.996 240.272 277.692 239.815 277.068C231.677 265.957 227.05 258.945 220.659 246.36C217.318 239.777 217.702 234.729 220.128 230.708C222.068 228.799 224.448 227.121 227.055 225.617C232.769 223.991 239.567 223.3 247.025 223.528L247.025 223.529H247.032H252.538V223.529L252.546 223.528C260 223.3 266.802 223.991 272.515 225.617C275.124 227.121 277.503 228.799 279.442 230.708C281.869 234.729 282.252 239.777 278.911 246.36C272.52 258.945 267.893 265.957 259.754 277.068Z" fill="#1C1F2D" stroke="#FFC000" stroke-width="0.5"/>
<path d="M272.732 225.182C277.515 227.936 281.574 231.282 283.606 235.605C285.641 239.938 285.634 245.235 282.266 251.868C278.745 258.804 275.709 264.204 272.432 269.401C269.157 274.594 265.641 279.586 261.16 285.706C260.638 286.418 260.295 286.808 259.857 287.081C259.42 287.355 258.918 287.498 258.071 287.721C256.845 288.046 255.824 288.256 254.823 288.388C253.894 288.511 252.982 288.569 251.938 288.593V288.606H247.632V288.593C246.588 288.569 245.676 288.511 244.747 288.388C243.745 288.256 242.724 288.046 241.499 287.721C240.652 287.498 240.15 287.355 239.713 287.081C239.274 286.808 238.933 286.418 238.41 285.706C233.928 279.586 230.413 274.594 227.138 269.401C223.861 264.204 220.825 258.804 217.304 251.868C213.936 245.235 213.929 239.938 215.964 235.605C217.995 231.282 222.055 227.936 226.836 225.182L226.864 225.166L226.891 225.158C229.764 224.339 232.907 223.753 236.268 223.402C239.653 223.046 243.261 222.927 247.032 223.043H252.538C256.309 222.927 259.916 223.046 263.302 223.402C266.663 223.753 269.806 224.339 272.679 225.158L272.706 225.166L272.732 225.182ZM283.178 235.804C281.199 231.592 277.218 228.314 272.523 225.604C269.679 224.796 266.572 224.218 263.253 223.87C259.885 223.516 256.296 223.398 252.546 223.515L252.538 223.516H247.032L247.024 223.515C243.274 223.398 239.686 223.516 236.317 223.87C232.998 224.218 229.891 224.796 227.047 225.604C222.352 228.314 218.371 231.592 216.392 235.804C214.417 240.011 214.434 245.169 217.726 251.655C221.241 258.577 224.27 263.966 227.539 269.151C230.809 274.34 234.319 279.323 238.79 285.429C239.277 286.089 239.587 286.447 239.964 286.682C240.343 286.921 240.815 287.054 241.619 287.266C242.828 287.585 243.83 287.792 244.808 287.922C245.79 288.053 246.75 288.107 247.872 288.125L248.105 288.129V288.133H251.465V288.129L251.698 288.125C252.82 288.107 253.78 288.053 254.762 287.922C255.74 287.792 256.743 287.585 257.951 287.266C258.753 287.054 259.228 286.921 259.604 286.682C259.983 286.447 260.295 286.089 260.777 285.429C265.249 279.323 268.759 274.34 272.031 269.151C275.3 263.966 278.33 258.577 281.844 251.655C285.138 245.169 285.153 240.011 283.178 235.804Z" fill="#2E2E2E"/>
<path fill-rule="evenodd" clip-rule="evenodd" d="M249.998 234.418C257.181 234.418 263 240.24 263 247.42C263 254.599 257.181 260.418 249.998 260.418C242.819 260.418 237 254.599 237 247.42C237 240.24 242.819 234.418 249.998 234.418Z" fill="#575757"/>
<path fill-rule="evenodd" clip-rule="evenodd" d="M249.998 234.418C256.626 234.418 262 240.013 262 246.917C262 253.82 256.626 259.418 249.998 259.418C243.372 259.418 238 253.82 238 246.917C238 240.013 243.372 234.418 249.998 234.418Z" fill="#1C1F2D"/>
<path d="M244.752 255.418C244.672 255.418 244.6 255.394 244.536 255.346C244.488 255.282 244.464 255.21 244.464 255.13V238.906C244.464 238.826 244.488 238.762 244.536 238.714C244.6 238.65 244.672 238.618 244.752 238.618H250.752C251.952 238.618 253 238.834 253.896 239.266C254.808 239.682 255.512 240.274 256.008 241.042C256.504 241.81 256.752 242.698 256.752 243.706V250.33C256.752 251.338 256.504 252.226 256.008 252.994C255.512 253.762 254.808 254.362 253.896 254.794C253 255.21 251.952 255.418 250.752 255.418H244.752ZM247.848 252.394C247.848 252.474 247.888 252.514 247.968 252.514H250.872C251.608 252.514 252.2 252.266 252.648 251.77C253.112 251.274 253.352 250.61 253.368 249.778V244.258C253.368 243.426 253.136 242.762 252.672 242.266C252.224 241.77 251.616 241.522 250.848 241.522H247.968C247.888 241.522 247.848 241.562 247.848 241.642V252.394Z" fill="white"/>
<path fill-rule="evenodd" clip-rule="evenodd" d="M193.127 238.489L208.164 238.046C209.76 237.999 210.786 239.371 211.065 240.935L212.915 251.286C213.196 252.85 211.558 254.577 210.016 254.175L195.589 250.426C194.047 250.025 193.279 249.013 192.69 247.536L190.228 241.378C189.637 239.902 191.535 238.536 193.127 238.489Z" fill="#333333"/>
<path fill-rule="evenodd" clip-rule="evenodd" d="M199.848 238.291L200.474 238.273L201.301 242.233L204.45 242.141C205.129 242.121 205.565 242.704 205.684 243.37L206.092 245.646L212.034 246.36L212.148 246.993L206.204 246.278L206.469 247.769C206.59 248.433 205.894 249.168 205.238 248.998L202.568 248.304L203.437 252.466L202.771 252.292L201.902 248.129L199.108 247.402C198.451 247.232 198.126 246.803 197.874 246.175L197.497 245.233L191.479 244.509L191.219 243.859L197.237 244.582L196.828 243.559C196.577 242.931 197.383 242.349 198.061 242.33L200.674 242.253L199.848 238.291Z" fill="#292929"/>
<path fill-rule="evenodd" clip-rule="evenodd" d="M306.443 238.489L291.406 238.046C289.811 237.999 288.784 239.371 288.505 240.935L286.655 251.286C286.374 252.85 288.012 254.577 289.554 254.175L303.98 250.426C305.523 250.025 306.291 249.013 306.881 247.536L309.342 241.378C309.933 239.902 308.036 238.536 306.443 238.489Z" fill="#333333"/>
<path fill-rule="evenodd" clip-rule="evenodd" d="M299.722 238.291L299.097 238.273L298.269 242.233L295.118 242.141C294.441 242.121 294.004 242.704 293.886 243.37L293.479 245.646L287.535 246.36L287.422 246.993L293.366 246.278L293.098 247.769C292.979 248.433 293.677 249.168 294.331 248.998L297.002 248.304L296.133 252.466L296.798 252.292L297.667 248.129L300.463 247.402C301.12 247.232 301.445 246.803 301.696 246.175L302.072 245.233L308.091 244.509L308.351 243.859L302.332 244.582L302.742 243.559C302.993 242.931 302.187 242.349 301.508 242.33L298.896 242.253L299.722 238.291Z" fill="#292929"/>
</g>
<g filter="url(#filter3_d_105_194)">
<g filter="url(#filter4_i_105_194)">
<path d="M235.578 331.344C237.391 331.344 238.438 330.266 238.438 328.359V311.094C238.438 309.188 237.391 308.109 235.578 308.109C233.766 308.109 232.703 309.188 232.703 311.094V328.359C232.703 330.266 233.766 331.344 235.578 331.344Z" fill="#FFC000"/>
</g>
<g filter="url(#filter5_i_105_194)">
<path d="M253.172 331H265.859C267.375 331 268.406 330.156 268.406 328.688C268.406 327.219 267.406 326.375 265.859 326.375H257.094V326.25L266.922 313.188C267.359 312.594 267.766 312.016 267.766 311.125C267.766 309.484 266.656 308.453 264.891 308.453H252.75C251.203 308.453 250.203 309.297 250.203 310.766C250.203 312.234 251.219 313.078 252.75 313.078H261.031V313.203L251.109 326.312C250.547 327.047 250.312 327.656 250.312 328.438C250.312 330 251.453 331 253.172 331Z" fill="#FFC000"/>
</g>
<g filter="url(#filter6_i_105_194)">
<path d="M282.172 331H294.859C296.375 331 297.406 330.156 297.406 328.688C297.406 327.219 296.406 326.375 294.859 326.375H286.094V326.25L295.922 313.188C296.359 312.594 296.766 312.016 296.766 311.125C296.766 309.484 295.656 308.453 293.891 308.453H281.75C280.203 308.453 279.203 309.297 279.203 310.766C279.203 312.234 280.219 313.078 281.75 313.078H290.031V313.203L280.109 326.312C279.547 327.047 279.312 327.656 279.312 328.438C279.312 330 280.453 331 282.172 331Z" fill="#FFC000"/>
</g>
<g filter="url(#filter7_i_105_194)">
<path d="M318.094 331.344C319.906 331.344 320.953 330.266 320.953 328.359V323.25L327.594 312.766C328.016 312.109 328.203 311.469 328.203 310.781C328.203 309.25 327 308.109 325.375 308.109C324.234 308.109 323.484 308.625 322.75 309.938L318.203 317.828H318.094L313.547 309.938C312.781 308.562 312.109 308.109 310.859 308.109C309.188 308.109 307.969 309.25 307.969 310.828C307.969 311.484 308.156 312.141 308.562 312.781L315.219 323.25V328.359C315.219 330.266 316.266 331.344 318.094 331.344Z" fill="#FFC000"/>
</g>
<g filter="url(#filter8_i_105_194)">
<path d="M205.578 331.359C207.391 331.359 208.438 330.266 208.438 328.375V323.109H211.719L215.062 329.125C216.031 330.875 216.625 331.359 218.016 331.359C219.688 331.359 220.875 330.266 220.875 328.75C220.875 328.078 220.766 327.609 220.266 326.781L217.5 322.078C219.797 320.922 221.016 318.547 221.016 315.891C221.016 311.234 217.984 308.453 212.359 308.453H205.578C203.766 308.453 202.703 309.547 202.703 311.453V328.375C202.703 330.266 203.766 331.359 205.578 331.359ZM208.438 319.188V312.781H211.781C213.828 312.781 215.156 314.078 215.156 316C215.156 317.953 213.906 319.188 211.797 319.188H208.438Z" fill="#FFC000"/>
</g>
<g filter="url(#filter9_i_105_194)">
<path d="M174.578 331H180.859C187.656 331 191.672 326.797 191.672 319.594C191.672 312.406 187.672 308.453 180.859 308.453H174.578C172.766 308.453 171.703 309.547 171.703 311.453V328C171.703 329.906 172.766 331 174.578 331ZM177.438 326.375V313.078H180.109C183.734 313.078 185.844 315.375 185.844 319.609C185.844 324.109 183.844 326.375 180.109 326.375H177.438Z" fill="#FFC000"/>
</g>
</g>
<defs>
<filter id="filter0_d_105_194" x="58" y="62" width="385" height="385" filterUnits="userSpaceOnUse" color-interpolation-filters="sRGB">
<feFlood flood-opacity="0" result="BackgroundImageFix"/>
<feColorMatrix in="SourceAlpha" type="matrix" values="0 0 0 0 0 0 0 0 0 0 0 0 0 0 0 0 0 0 127 0" result="hardAlpha"/>
<feOffset dy="4"/>
<feGaussianBlur stdDeviation="22.5"/>
<feComposite in2="hardAlpha" operator="out"/>
<feColorMatrix type="matrix" values="0 0 0 0 0 0 0 0 0 0 0 0 0 0 0 0 0 0 0.2 0"/>
<feBlend mode="normal" in2="BackgroundImageFix" result="effect1_dropShadow_105_194"/>
<feBlend mode="normal" in="SourceGraphic" in2="effect1_dropShadow_105_194" result="shape"/>
</filter>
<filter id="filter1_d_105_194" x="160" y="160.022" width="179.572" height="178.908" filterUnits="userSpaceOnUse" color-interpolation-filters="sRGB">
<feFlood flood-opacity="0" result="BackgroundImageFix"/>
<feColorMatrix in="SourceAlpha" type="matrix" values="0 0 0 0 0 0 0 0 0 0 0 0 0 0 0 0 0 0 127 0" result="hardAlpha"/>
<feOffset dy="4"/>
<feGaussianBlur stdDeviation="2"/>
<feComposite in2="hardAlpha" operator="out"/>
<feColorMatrix type="matrix" values="0 0 0 0 0 0 0 0 0 0 0 0 0 0 0 0 0 0 0.25 0"/>
<feBlend mode="normal" in2="BackgroundImageFix" result="effect1_dropShadow_105_194"/>
<feBlend mode="normal" in="SourceGraphic" in2="effect1_dropShadow_105_194" result="shape"/>
</filter>
<filter id="filter2_d_105_194" x="175.5" y="223" width="149.349" height="80.6055" filterUnits="userSpaceOnUse" color-interpolation-filters="sRGB">
<feFlood flood-opacity="0" result="BackgroundImageFix"/>
<feColorMatrix in="SourceAlpha" type="matrix" values="0 0 0 0 0 0 0 0 0 0 0 0 0 0 0 0 0 0 127 0" result="hardAlpha"/>
<feOffset dy="4"/>
<feGaussianBlur stdDeviation="2"/>
<feComposite in2="hardAlpha" operator="out"/>
<feColorMatrix type="matrix" values="0 0 0 0 0 0 0 0 0 0 0 0 0 0 0 0 0 0 0.25 0"/>
<feBlend mode="normal" in2="BackgroundImageFix" result="effect1_dropShadow_105_194"/>
<feBlend mode="normal" in="SourceGraphic" in2="effect1_dropShadow_105_194" result="shape"/>
</filter>
<filter id="filter3_d_105_194" x="150.703" y="291.109" width="198.5" height="65.25" filterUnits="userSpaceOnUse" color-interpolation-filters="sRGB">
<feFlood flood-opacity="0" result="BackgroundImageFix"/>
<feColorMatrix in="SourceAlpha" type="matrix" values="0 0 0 0 0 0 0 0 0 0 0 0 0 0 0 0 0 0 127 0" result="hardAlpha"/>
<feOffset dy="4"/>
<feGaussianBlur stdDeviation="10.5"/>
<feComposite in2="hardAlpha" operator="out"/>
<feColorMatrix type="matrix" values="0 0 0 0 0 0 0 0 0 0 0 0 0 0 0 0 0 0 0.11 0"/>
<feBlend mode="normal" in2="BackgroundImageFix" result="effect1_dropShadow_105_194"/>
<feBlend mode="normal" in="SourceGraphic" in2="effect1_dropShadow_105_194" result="shape"/>
</filter>
<filter id="filter4_i_105_194" x="232.703" y="308.109" width="7.73438" height="25.2344" filterUnits="userSpaceOnUse" color-interpolation-filters="sRGB">
<feFlood flood-opacity="0" result="BackgroundImageFix"/>
<feBlend mode="normal" in="SourceGraphic" in2="BackgroundImageFix" result="shape"/>
<feColorMatrix in="SourceAlpha" type="matrix" values="0 0 0 0 0 0 0 0 0 0 0 0 0 0 0 0 0 0 127 0" result="hardAlpha"/>
<feOffset dx="2" dy="2"/>
<feGaussianBlur stdDeviation="2"/>
<feComposite in2="hardAlpha" operator="arithmetic" k2="-1" k3="1"/>
<feColorMatrix type="matrix" values="0 0 0 0 1 0 0 0 0 0.846618 0 0 0 0 0.379167 0 0 0 1 0"/>
<feBlend mode="normal" in2="shape" result="effect1_innerShadow_105_194"/>
</filter>
<filter id="filter5_i_105_194" x="250.203" y="308.453" width="20.2031" height="24.5469" filterUnits="userSpaceOnUse" color-interpolation-filters="sRGB">
<feFlood flood-opacity="0" result="BackgroundImageFix"/>
<feBlend mode="normal" in="SourceGraphic" in2="BackgroundImageFix" result="shape"/>
<feColorMatrix in="SourceAlpha" type="matrix" values="0 0 0 0 0 0 0 0 0 0 0 0 0 0 0 0 0 0 127 0" result="hardAlpha"/>
<feOffset dx="2" dy="2"/>
<feGaussianBlur stdDeviation="2"/>
<feComposite in2="hardAlpha" operator="arithmetic" k2="-1" k3="1"/>
<feColorMatrix type="matrix" values="0 0 0 0 1 0 0 0 0 0.846618 0 0 0 0 0.379167 0 0 0 1 0"/>
<feBlend mode="normal" in2="shape" result="effect1_innerShadow_105_194"/>
</filter>
<filter id="filter6_i_105_194" x="279.203" y="308.453" width="20.2031" height="24.5469" filterUnits="userSpaceOnUse" color-interpolation-filters="sRGB">
<feFlood flood-opacity="0" result="BackgroundImageFix"/>
<feBlend mode="normal" in="SourceGraphic" in2="BackgroundImageFix" result="shape"/>
<feColorMatrix in="SourceAlpha" type="matrix" values="0 0 0 0 0 0 0 0 0 0 0 0 0 0 0 0 0 0 127 0" result="hardAlpha"/>
<feOffset dx="2" dy="2"/>
<feGaussianBlur stdDeviation="2"/>
<feComposite in2="hardAlpha" operator="arithmetic" k2="-1" k3="1"/>
<feColorMatrix type="matrix" values="0 0 0 0 1 0 0 0 0 0.846618 0 0 0 0 0.379167 0 0 0 1 0"/>
<feBlend mode="normal" in2="shape" result="effect1_innerShadow_105_194"/>
</filter>
<filter id="filter7_i_105_194" x="307.969" y="308.109" width="22.2344" height="25.2344" filterUnits="userSpaceOnUse" color-interpolation-filters="sRGB">
<feFlood flood-opacity="0" result="BackgroundImageFix"/>
<feBlend mode="normal" in="SourceGraphic" in2="BackgroundImageFix" result="shape"/>
<feColorMatrix in="SourceAlpha" type="matrix" values="0 0 0 0 0 0 0 0 0 0 0 0 0 0 0 0 0 0 127 0" result="hardAlpha"/>
<feOffset dx="2" dy="2"/>
<feGaussianBlur stdDeviation="2"/>
<feComposite in2="hardAlpha" operator="arithmetic" k2="-1" k3="1"/>
<feColorMatrix type="matrix" values="0 0 0 0 1 0 0 0 0 0.846618 0 0 0 0 0.379167 0 0 0 1 0"/>
<feBlend mode="normal" in2="shape" result="effect1_innerShadow_105_194"/>
</filter>
<filter id="filter8_i_105_194" x="202.703" y="308.453" width="20.3125" height="24.9062" filterUnits="userSpaceOnUse" color-interpolation-filters="sRGB">
<feFlood flood-opacity="0" result="BackgroundImageFix"/>
<feBlend mode="normal" in="SourceGraphic" in2="BackgroundImageFix" result="shape"/>
<feColorMatrix in="SourceAlpha" type="matrix" values="0 0 0 0 0 0 0 0 0 0 0 0 0 0 0 0 0 0 127 0" result="hardAlpha"/>
<feOffset dx="2" dy="2"/>
<feGaussianBlur stdDeviation="2"/>
<feComposite in2="hardAlpha" operator="arithmetic" k2="-1" k3="1"/>
<feColorMatrix type="matrix" values="0 0 0 0 1 0 0 0 0 0.846618 0 0 0 0 0.379167 0 0 0 1 0"/>
<feBlend mode="normal" in2="shape" result="effect1_innerShadow_105_194"/>
</filter>
<filter id="filter9_i_105_194" x="171.703" y="308.453" width="21.9688" height="24.5469" filterUnits="userSpaceOnUse" color-interpolation-filters="sRGB">
<feFlood flood-opacity="0" result="BackgroundImageFix"/>
<feBlend mode="normal" in="SourceGraphic" in2="BackgroundImageFix" result="shape"/>
<feColorMatrix in="SourceAlpha" type="matrix" values="0 0 0 0 0 0 0 0 0 0 0 0 0 0 0 0 0 0 127 0" result="hardAlpha"/>
<feOffset dx="2" dy="2"/>
<feGaussianBlur stdDeviation="2"/>
<feComposite in2="hardAlpha" operator="arithmetic" k2="-1" k3="1"/>
<feColorMatrix type="matrix" values="0 0 0 0 1 0 0 0 0 0.846618 0 0 0 0 0.379167 0 0 0 1 0"/>
<feBlend mode="normal" in2="shape" result="effect1_innerShadow_105_194"/>
</filter>
</defs>
</svg>
